<?xml version="1.0" encoding="UTF-8" standalone="no"?>
<!-- Created with Inkscape (http://www.inkscape.org/) -->

<svg
   version="1.1"
   id="svg1"
   width="710.96002"
   height="272.66666"
   viewBox="0 0 710.96002 272.66666"
   sodipodi:docname="C3S_POS_LINE.eps"
   xmlns:inkscape="http://www.inkscape.org/namespaces/inkscape"
   xmlns:sodipodi="http://sodipodi.sourceforge.net/DTD/sodipodi-0.dtd"
   xmlns="http://www.w3.org/2000/svg"
   xmlns:svg="http://www.w3.org/2000/svg">
  <defs
     id="defs1" />
  <sodipodi:namedview
     id="namedview1"
     pagecolor="#ffffff"
     bordercolor="#000000"
     borderopacity="0.25"
     inkscape:showpageshadow="2"
     inkscape:pageopacity="0.0"
     inkscape:pagecheckerboard="0"
     inkscape:deskcolor="#d1d1d1">
    <inkscape:page
       x="0"
       y="0"
       inkscape:label="1"
       id="page1"
       width="710.96002"
       height="272.66666"
       margin="0"
       bleed="0" />
  </sodipodi:namedview>
  <g
     id="g1"
     inkscape:groupmode="layer"
     inkscape:label="1">
    <g
       id="group-R5">
      <path
         id="path2"
         d="m 2224.06,70.6094 c -9.18,-4.3985 -17.9,-7.8086 -26.15,-10.25 -8.25,-2.4492 -17.01,-3.668 -26.29,-3.668 -11.82,0 -22.66,1.7305 -32.52,5.207 -9.86,3.461 -18.32,8.711 -25.35,15.7422 -7.13,7.0313 -12.64,15.918 -16.54,26.6604 -3.91,10.738 -5.86,23.289 -5.86,37.648 0,26.762 7.34,47.75 22.04,62.992 14.7,15.231 34.11,22.848 58.23,22.848 9.38,0 18.58,-1.32 27.61,-3.961 9.03,-2.629 17.31,-5.859 24.83,-9.668 v -30.609 h -1.46 c -8.4,6.539 -17.07,11.57 -26.01,15.09 -8.93,3.507 -17.64,5.269 -26.14,5.269 -15.63,0 -27.96,-5.25 -36.99,-15.738 -9.04,-10.512 -13.56,-25.91 -13.56,-46.223 0,-19.73 4.43,-34.898 13.26,-45.4802 8.84,-10.6094 21.27,-15.8985 37.29,-15.8985 5.57,0 11.23,0.7305 16.99,2.1992 5.76,1.461 10.94,3.3711 15.53,5.711 4,2.0508 7.75,4.2187 11.27,6.5195 3.51,2.2891 6.31,4.2695 8.36,5.93 h 1.46 V 70.6094"
         style="fill:#918f90;fill-opacity:1;fill-rule:nonzero;stroke:none"
         transform="matrix(0.13333333,0,0,-0.13333333,0,272.66667)" />
      <path
         id="path3"
         d="m 2287.19,60.3594 h -27.54 V 288.289 h 27.54 V 60.3594"
         style="fill:#918f90;fill-opacity:1;fill-rule:nonzero;stroke:none"
         transform="matrix(0.13333333,0,0,-0.13333333,0,272.66667)" />
      <path
         id="path4"
         d="m 2369.51,60.3594 h -27.54 V 223.98 h 27.54 z m 1.76,191.0116 h -31.06 v 28.57 h 31.06 v -28.57"
         style="fill:#918f90;fill-opacity:1;fill-rule:nonzero;stroke:none"
         transform="matrix(0.13333333,0,0,-0.13333333,0,272.66667)" />
      <path
         id="path5"
         d="m 2662.77,60.3594 h -27.54 V 153.52 c 0,7.031 -0.31,13.82 -0.94,20.359 -0.64,6.543 -1.99,11.769 -4.04,15.672 -2.24,4.199 -5.46,7.379 -9.66,9.527 -4.2,2.141 -10.26,3.223 -18.17,3.223 -7.71,0 -15.43,-1.922 -23.14,-5.789 -7.72,-3.852 -15.43,-8.762 -23.15,-14.723 0.3,-2.25 0.55,-4.848 0.75,-7.84 0.19,-2.969 0.29,-5.929 0.29,-8.859 V 60.3594 h -27.54 V 153.52 c 0,7.23 -0.32,14.082 -0.96,20.589 -0.63,6.481 -1.97,11.68 -4.02,15.59 -2.25,4.199 -5.47,7.352 -9.67,9.442 -4.2,2.109 -10.25,3.16 -18.16,3.16 -7.52,0 -15.07,-1.86 -22.64,-5.571 -7.57,-3.71 -15.12,-8.441 -22.64,-14.21 V 60.3594 H 2424 V 223.98 h 27.54 v -18.171 c 8.6,7.132 17.17,12.703 25.72,16.703 8.54,4.008 17.64,6.008 27.31,6.008 11.13,0 20.59,-2.34 28.35,-7.032 7.76,-4.687 13.54,-11.179 17.35,-19.476 11.14,9.367 21.29,16.136 30.47,20.277 9.18,4.16 19.01,6.231 29.46,6.231 17.96,0 31.22,-5.45 39.76,-16.329 8.55,-10.902 12.81,-26.101 12.81,-45.632 V 60.3594"
         style="fill:#918f90;fill-opacity:1;fill-rule:nonzero;stroke:none"
         transform="matrix(0.13333333,0,0,-0.13333333,0,272.66667)" />
      <path
         id="path6"
         d="m 2815.57,100.641 v 45.558 c -8.4,-0.488 -18.29,-1.23 -29.67,-2.199 -11.38,-0.98 -20.39,-2.391 -27.03,-4.25 -7.91,-2.25 -14.3,-5.738 -19.18,-10.469 -4.89,-4.742 -7.33,-11.261 -7.33,-19.562 0,-9.367 2.84,-16.4299 8.5,-21.1604 5.66,-4.75 14.3,-7.1094 25.92,-7.1094 9.67,0 18.51,1.8711 26.52,5.6406 8.01,3.75 15.43,8.2813 22.27,13.5512 z m 27.38,-40.2816 h -27.38 v 17.4297 c -2.44,-1.6602 -5.75,-3.9805 -9.9,-6.9688 -4.15,-2.9609 -8.17,-5.3398 -12.08,-7.1015 -4.59,-2.2383 -9.86,-4.129 -15.82,-5.629 -5.95,-1.5195 -12.95,-2.2812 -20.95,-2.2812 -14.75,0 -27.25,4.8906 -37.5,14.6523 -10.26,9.7696 -15.37,22.2188 -15.37,37.3591 0,12.399 2.65,22.442 7.97,30.09 5.33,7.68 12.92,13.711 22.79,18.102 9.96,4.386 21.91,7.367 35.88,8.937 13.96,1.563 28.96,2.731 44.98,3.512 v 4.25 c 0,6.25 -1.11,11.418 -3.3,15.527 -2.2,4.102 -5.36,7.321 -9.46,9.66 -3.9,2.25 -8.59,3.762 -14.06,4.551 -5.47,0.781 -11.17,1.172 -17.13,1.172 -7.23,0 -15.29,-0.961 -24.18,-2.851 -8.89,-1.918 -18.06,-4.668 -27.54,-8.29 h -1.46 v 27.981 c 5.37,1.469 13.14,3.078 23.3,4.84 10.15,1.75 20.15,2.629 30.02,2.629 11.52,0 21.56,-0.95 30.11,-2.852 8.54,-1.906 15.94,-5.148 22.19,-9.738 6.15,-4.5 10.84,-10.309 14.07,-17.442 3.22,-7.117 4.82,-15.957 4.82,-26.507 V 60.3594"
         style="fill:#918f90;fill-opacity:1;fill-rule:nonzero;stroke:none"
         transform="matrix(0.13333333,0,0,-0.13333333,0,272.66667)" />
      <path
         id="path7"
         d="m 2980.94,61.8203 c -5.18,-1.3711 -10.81,-2.4922 -16.92,-3.3711 -6.1,-0.8789 -11.54,-1.3203 -16.32,-1.3203 -16.7,0 -29.4,4.5 -38.09,13.4805 -8.69,8.9804 -13.05,23.3906 -13.05,43.2106 v 87.012 h -18.59 v 23.148 h 18.59 V 271 h 27.54 v -47.02 h 56.84 V 200.832 H 2924.1 V 126.27 c 0,-8.59 0.2,-15.309 0.59,-20.129 0.39,-4.852 1.76,-9.3597 4.1,-13.5629 2.15,-3.8984 5.11,-6.7578 8.87,-8.5664 3.76,-1.8008 9.49,-2.7109 17.2,-2.7109 4.5,0 9.18,0.6601 14.07,1.9883 4.88,1.3007 8.39,2.4101 10.54,3.289 h 1.47 V 61.8203"
         style="fill:#918f90;fill-opacity:1;fill-rule:nonzero;stroke:none"
         transform="matrix(0.13333333,0,0,-0.13333333,0,272.66667)" />
      <path
         id="path8"
         d="m 3124.36,160.398 c -0.1,14.461 -3.74,25.641 -10.92,33.551 -7.18,7.91 -18.09,11.86 -32.74,11.86 -14.74,0 -26.49,-4.34 -35.23,-13.028 -8.74,-8.691 -13.69,-19.492 -14.86,-32.383 z m 26.79,-21.089 h -120.54 c 0,-10.059 1.5,-18.821 4.53,-26.297 3.02,-7.461 7.18,-13.5901 12.46,-18.3831 5.08,-4.6797 11.1,-8.1992 18.08,-10.5391 6.99,-2.3515 14.67,-3.5195 23.07,-3.5195 11.13,0 22.34,2.2305 33.62,6.6602 11.28,4.4492 19.31,8.8203 24.09,13.1215 h 1.47 V 70.3203 c -9.28,-3.9101 -18.75,-7.1797 -28.42,-9.8203 -9.67,-2.6289 -19.82,-3.9492 -30.47,-3.9492 -27.15,0 -48.34,7.3398 -63.57,22.0508 -15.24,14.6875 -22.85,35.5584 -22.85,62.6094 0,26.758 7.3,48 21.9,63.73 14.6,15.719 33.82,23.579 57.65,23.579 22.07,0 39.08,-6.45 51.04,-19.34 11.97,-12.891 17.94,-31.2 17.94,-54.93 v -14.941"
         style="fill:#918f90;fill-opacity:1;fill-rule:nonzero;stroke:none"
         transform="matrix(0.13333333,0,0,-0.13333333,0,272.66667)" />
      <path
         id="path9"
         d="m 3237.87,60.3594 h -35 v 41.7426 h 35 V 60.3594"
         style="fill:#918f90;fill-opacity:1;fill-rule:nonzero;stroke:none"
         transform="matrix(0.13333333,0,0,-0.13333333,0,272.66667)" />
      <path
         id="path10"
         d="m 3423.03,70.6094 c -9.18,-4.3985 -17.89,-7.8086 -26.15,-10.25 -8.25,-2.4492 -17.02,-3.668 -26.29,-3.668 -11.82,0 -22.66,1.7305 -32.52,5.207 -9.87,3.461 -18.3,8.711 -25.34,15.7422 -7.12,7.0313 -12.65,15.918 -16.56,26.6604 -3.9,10.738 -5.86,23.289 -5.86,37.648 0,26.762 7.36,47.75 22.05,62.992 14.7,15.231 34.1,22.848 58.23,22.848 9.37,0 18.58,-1.32 27.61,-3.961 9.04,-2.629 17.31,-5.859 24.83,-9.668 v -30.609 h -1.47 c -8.4,6.539 -17.06,11.57 -25.99,15.09 -8.94,3.507 -17.66,5.269 -26.16,5.269 -15.62,0 -27.95,-5.25 -36.98,-15.738 -9.03,-10.512 -13.54,-25.91 -13.54,-46.223 0,-19.73 4.41,-34.898 13.25,-45.4802 8.84,-10.6094 21.26,-15.8985 37.27,-15.8985 5.57,0 11.23,0.7305 17,2.1992 5.76,1.461 10.93,3.3711 15.52,5.711 4.01,2.0508 7.78,4.2187 11.29,6.5195 3.52,2.2891 6.29,4.2695 8.34,5.93 h 1.47 V 70.6094"
         style="fill:#918f90;fill-opacity:1;fill-rule:nonzero;stroke:none"
         transform="matrix(0.13333333,0,0,-0.13333333,0,272.66667)" />
      <path
         id="path11"
         d="m 3569.38,142.09 c 0,21.199 -4.17,36.941 -12.47,47.25 -8.3,10.289 -19.82,15.449 -34.57,15.449 -14.94,0 -26.53,-5.16 -34.78,-15.449 -8.25,-10.309 -12.38,-26.051 -12.38,-47.25 0,-20.5 4.16,-36.051 12.46,-46.6603 8.3,-10.5781 19.86,-15.8906 34.7,-15.8906 14.65,0 26.16,5.25 34.51,15.7617 8.35,10.4882 12.53,26.0902 12.53,46.7892 z m 28.41,0 c 0,-26.66 -6.83,-47.6994 -20.5,-63.1291 -13.68,-15.4296 -32,-23.1523 -54.95,-23.1523 -23.14,0 -41.52,7.7227 -55.14,23.1523 -13.63,15.4297 -20.44,36.4691 -20.44,63.1291 0,26.66 6.81,47.738 20.44,63.211 13.62,15.488 32,23.219 55.14,23.219 22.95,0 41.27,-7.731 54.95,-23.219 13.67,-15.473 20.5,-36.551 20.5,-63.211"
         style="fill:#918f90;fill-opacity:1;fill-rule:nonzero;stroke:none"
         transform="matrix(0.13333333,0,0,-0.13333333,0,272.66667)" />
      <path
         id="path12"
         d="m 3756,143.41 c 0,19.731 -3.38,34.469 -10.12,44.238 -6.74,9.774 -17.09,14.653 -31.06,14.653 -7.91,0 -15.86,-1.711 -23.86,-5.129 -8.01,-3.422 -15.69,-7.91 -23.01,-13.473 V 90.9688 c 7.81,-3.5079 14.53,-5.9102 20.15,-7.1797 5.61,-1.2696 11.98,-1.8985 19.11,-1.8985 15.33,0 27.3,5.168 35.9,15.5313 8.59,10.3481 12.89,25.6801 12.89,45.9881 z m 28.41,0.731 c 0,-13.282 -1.91,-25.411 -5.72,-36.403 -3.81,-10.9763 -9.18,-20.2771 -16.11,-27.8982 -6.45,-7.2304 -14.04,-12.8203 -22.78,-16.7695 -8.74,-3.9609 -17.98,-5.9414 -27.75,-5.9414 -8.5,0 -16.19,0.9297 -23.08,2.793 -6.88,1.8476 -13.89,4.7265 -21.02,8.6367 V 0 h -27.54 v 223.98 h 27.54 v -17.14 c 7.32,6.148 15.56,11.308 24.69,15.449 9.13,4.16 18.86,6.231 29.22,6.231 19.72,0 35.08,-7.442 46.07,-22.34 10.99,-14.891 16.48,-35.571 16.48,-62.039"
         style="fill:#918f90;fill-opacity:1;fill-rule:nonzero;stroke:none"
         transform="matrix(0.13333333,0,0,-0.13333333,0,272.66667)" />
      <path
         id="path13"
         d="m 3937.48,160.398 c -0.1,14.461 -3.73,25.641 -10.91,33.551 -7.18,7.91 -18.09,11.86 -32.74,11.86 -14.75,0 -26.49,-4.34 -35.23,-13.028 -8.74,-8.691 -13.7,-19.492 -14.87,-32.383 z m 26.82,-21.089 h -120.57 c 0,-10.059 1.52,-18.821 4.55,-26.297 3.03,-7.461 7.17,-13.5901 12.44,-18.3831 5.08,-4.6797 11.12,-8.1992 18.1,-10.5391 6.98,-2.3515 14.68,-3.5195 23.07,-3.5195 11.14,0 22.34,2.2305 33.62,6.6602 11.28,4.4492 19.31,8.8203 24.1,13.1215 h 1.46 V 70.3203 c -9.27,-3.9101 -18.75,-7.1797 -28.41,-9.8203 -9.67,-2.6289 -19.83,-3.9492 -30.47,-3.9492 -27.15,0 -48.34,7.3398 -63.58,22.0508 -15.23,14.6875 -22.85,35.5584 -22.85,62.6094 0,26.758 7.3,48 21.9,63.73 14.6,15.719 33.8,23.579 57.63,23.579 22.07,0 39.09,-6.45 51.06,-19.34 11.96,-12.891 17.95,-31.2 17.95,-54.93 v -14.941"
         style="fill:#918f90;fill-opacity:1;fill-rule:nonzero;stroke:none"
         transform="matrix(0.13333333,0,0,-0.13333333,0,272.66667)" />
      <path
         id="path14"
         d="m 4108.14,193.949 h -1.46 c -4.1,0.981 -8.09,1.68 -11.94,2.129 -3.86,0.434 -8.43,0.652 -13.7,0.652 -8.5,0 -16.7,-1.878 -24.61,-5.628 -7.91,-3.774 -15.53,-8.633 -22.86,-14.582 V 60.3594 h -27.53 V 223.98 h 27.53 v -24.171 c 10.94,8.793 20.59,15.019 28.94,18.671 8.35,3.668 16.87,5.5 25.56,5.5 4.78,0 8.26,-0.128 10.41,-0.359 2.15,-0.262 5.37,-0.723 9.66,-1.402 v -28.27"
         style="fill:#918f90;fill-opacity:1;fill-rule:nonzero;stroke:none"
         transform="matrix(0.13333333,0,0,-0.13333333,0,272.66667)" />
      <path
         id="path15"
         d="m 4270.88,60.3594 h -27.54 V 153.52 c 0,7.519 -0.43,14.57 -1.31,21.171 -0.88,6.579 -2.5,11.739 -4.84,15.45 -2.44,4.097 -5.96,7.148 -10.55,9.16 -4.59,1.988 -10.55,3 -17.87,3 -7.52,0 -15.37,-1.86 -23.57,-5.571 -8.21,-3.71 -16.08,-8.441 -23.6,-14.21 V 60.3594 h -27.54 V 223.98 h 27.54 v -18.171 c 8.6,7.132 17.48,12.703 26.66,16.703 9.18,4.008 18.62,6.008 28.28,6.008 17.68,0 31.16,-5.321 40.43,-15.969 9.28,-10.641 13.91,-25.973 13.91,-45.992 V 60.3594"
         style="fill:#918f90;fill-opacity:1;fill-rule:nonzero;stroke:none"
         transform="matrix(0.13333333,0,0,-0.13333333,0,272.66667)" />
      <path
         id="path16"
         d="M 4351.74,60.3594 H 4324.2 V 223.98 h 27.54 z m 1.76,191.0116 h -31.06 v 28.57 h 31.06 v -28.57"
         style="fill:#918f90;fill-opacity:1;fill-rule:nonzero;stroke:none"
         transform="matrix(0.13333333,0,0,-0.13333333,0,272.66667)" />
      <path
         id="path17"
         d="m 4527.23,70.6094 c -9.18,-4.3985 -17.89,-7.8086 -26.15,-10.25 -8.25,-2.4492 -17.02,-3.668 -26.29,-3.668 -11.82,0 -22.66,1.7305 -32.52,5.207 -9.87,3.461 -18.31,8.711 -25.34,15.7422 -7.13,7.0313 -12.65,15.918 -16.56,26.6604 -3.91,10.738 -5.86,23.289 -5.86,37.648 0,26.762 7.36,47.75 22.05,62.992 14.7,15.231 34.1,22.848 58.23,22.848 9.37,0 18.58,-1.32 27.61,-3.961 9.04,-2.629 17.31,-5.859 24.83,-9.668 v -30.609 h -1.47 c -8.4,6.539 -17.06,11.57 -25.99,15.09 -8.94,3.507 -17.66,5.269 -26.16,5.269 -15.62,0 -27.95,-5.25 -36.98,-15.738 -9.03,-10.512 -13.54,-25.91 -13.54,-46.223 0,-19.73 4.41,-34.898 13.25,-45.4802 8.84,-10.6094 21.26,-15.8985 37.27,-15.8985 5.57,0 11.23,0.7305 17,2.1992 5.76,1.461 10.93,3.3711 15.52,5.711 4.01,2.0508 7.78,4.2187 11.29,6.5195 3.52,2.2891 6.29,4.2695 8.34,5.93 h 1.47 V 70.6094"
         style="fill:#918f90;fill-opacity:1;fill-rule:nonzero;stroke:none"
         transform="matrix(0.13333333,0,0,-0.13333333,0,272.66667)" />
      <path
         id="path18"
         d="m 4698.18,60.3594 h -27.54 v 18.1601 c -9.27,-7.3203 -18.16,-12.9414 -26.66,-16.8476 -8.49,-3.9024 -17.87,-5.8633 -28.12,-5.8633 -17.19,0 -30.57,5.25 -40.14,15.7617 -9.57,10.4805 -14.35,25.8906 -14.35,46.2107 V 223.98 h 27.54 v -93.171 c 0,-8.297 0.39,-15.399 1.17,-21.309 0.78,-5.898 2.44,-10.9609 4.98,-15.1602 2.64,-4.3007 6.05,-7.4179 10.25,-9.3789 4.2,-1.9492 10.3,-2.9218 18.3,-2.9218 7.13,0 14.93,1.8515 23.37,5.5625 8.45,3.707 16.34,8.4492 23.66,14.2074 V 223.98 h 27.54 V 60.3594"
         style="fill:#918f90;fill-opacity:1;fill-rule:nonzero;stroke:none"
         transform="matrix(0.13333333,0,0,-0.13333333,0,272.66667)" />
      <path
         id="path19"
         d="m 4869.28,107.52 c 0,-14.9419 -6.18,-27.1919 -18.54,-36.7583 -12.35,-9.5703 -29.22,-14.3633 -50.6,-14.3633 -12.11,0 -23.23,1.4414 -33.33,4.3321 -10.11,2.8711 -18.59,6.0195 -25.42,9.4414 v 30.9061 h 1.46 c 8.69,-6.5389 18.36,-11.7382 29.01,-15.6092 10.64,-3.8399 20.85,-5.7774 30.62,-5.7774 12.11,0 21.58,1.9492 28.42,5.8594 6.83,3.9101 10.25,10.0586 10.25,18.4612 0,6.437 -1.85,11.328 -5.56,14.648 -3.71,3.32 -10.84,6.149 -21.39,8.488 -3.91,0.883 -9.01,1.911 -15.31,3.082 -6.3,1.168 -12.03,2.442 -17.21,3.809 -14.36,3.813 -24.54,9.402 -30.55,16.762 -6,7.39 -9,16.437 -9,27.179 0,6.739 1.39,13.09 4.17,19.051 2.78,5.949 7,11.27 12.66,15.957 5.47,4.59 12.44,8.223 20.88,10.922 8.45,2.68 17.89,4.02 28.34,4.02 9.77,0 19.66,-1.192 29.67,-3.59 10.01,-2.379 18.34,-5.289 24.98,-8.711 v -29.438 h -1.46 c -7.03,5.168 -15.59,9.539 -25.65,13.11 -10.06,3.558 -19.92,5.34 -29.59,5.34 -10.06,0 -18.55,-1.922 -25.49,-5.789 -6.93,-3.852 -10.39,-9.59 -10.39,-17.211 0,-6.731 2.09,-11.813 6.29,-15.231 4.1,-3.422 10.75,-6.199 19.92,-8.351 5.08,-1.168 10.78,-2.34 17.08,-3.52 6.29,-1.168 11.54,-2.238 15.74,-3.219 12.79,-2.929 22.65,-7.961 29.59,-15.09 6.93,-7.218 10.41,-16.789 10.41,-28.71"
         style="fill:#918f90;fill-opacity:1;fill-rule:nonzero;stroke:none"
         transform="matrix(0.13333333,0,0,-0.13333333,0,272.66667)" />
      <path
         id="path20"
         d="m 4953.65,60.3594 h -35.02 v 41.7426 h 35.02 V 60.3594"
         style="fill:#918f90;fill-opacity:1;fill-rule:nonzero;stroke:none"
         transform="matrix(0.13333333,0,0,-0.13333333,0,272.66667)" />
      <path
         id="path21"
         d="m 5127.97,160.398 c -0.1,14.461 -3.74,25.641 -10.92,33.551 -7.18,7.91 -18.09,11.86 -32.73,11.86 -14.75,0 -26.5,-4.34 -35.24,-13.028 -8.74,-8.691 -13.69,-19.492 -14.86,-32.383 z m 26.8,-21.089 h -120.55 c 0,-10.059 1.5,-18.821 4.53,-26.297 3.03,-7.461 7.19,-13.5901 12.46,-18.3831 5.08,-4.6797 11.1,-8.1992 18.09,-10.5391 6.98,-2.3515 14.66,-3.5195 23.06,-3.5195 11.14,0 22.35,2.2305 33.63,6.6602 11.28,4.4492 19.3,8.8203 24.09,13.1215 h 1.46 V 70.3203 c -9.27,-3.9101 -18.75,-7.1797 -28.41,-9.8203 -9.67,-2.6289 -19.83,-3.9492 -30.47,-3.9492 -27.15,0 -48.34,7.3398 -63.58,22.0508 -15.23,14.6875 -22.85,35.5584 -22.85,62.6094 0,26.758 7.31,48 21.9,63.73 14.6,15.719 33.82,23.579 57.65,23.579 22.07,0 39.08,-6.45 51.05,-19.34 11.96,-12.891 17.94,-31.2 17.94,-54.93 v -14.941"
         style="fill:#918f90;fill-opacity:1;fill-rule:nonzero;stroke:none"
         transform="matrix(0.13333333,0,0,-0.13333333,0,272.66667)" />
      <path
         id="path22"
         d="m 5332.17,60.3594 h -27.54 v 18.1601 c -9.28,-7.3203 -18.17,-12.9414 -26.66,-16.8476 -8.5,-3.9024 -17.87,-5.8633 -28.13,-5.8633 -17.18,0 -30.56,5.25 -40.13,15.7617 -9.57,10.4805 -14.36,25.8906 -14.36,46.2107 V 223.98 h 27.54 v -93.171 c 0,-8.297 0.39,-15.399 1.17,-21.309 0.78,-5.898 2.44,-10.9609 4.98,-15.1602 2.64,-4.3007 6.06,-7.4179 10.26,-9.3789 4.2,-1.9492 10.29,-2.9218 18.3,-2.9218 7.13,0 14.92,1.8515 23.37,5.5625 8.44,3.707 16.33,8.4492 23.66,14.2074 V 223.98 h 27.54 V 60.3594"
         style="fill:#918f90;fill-opacity:1;fill-rule:nonzero;stroke:none"
         transform="matrix(0.13333333,0,0,-0.13333333,0,272.66667)" />
      <path
         id="path23"
         d="m 2300.08,1180.58 c -6.09,-2.65 -11.59,-5.15 -16.52,-7.47 -4.93,-2.32 -11.37,-4.76 -19.34,-7.31 -6.75,-2.1 -14.08,-3.9 -21.99,-5.39 -7.91,-1.5 -16.63,-2.24 -26.16,-2.24 -17.93,0 -34.21,2.52 -48.88,7.55 -14.67,5.04 -27.42,12.92 -38.26,23.66 -10.63,10.51 -18.93,23.88 -24.91,40.09 -5.97,16.21 -8.96,35.05 -8.96,56.53 0,20.36 2.87,38.57 8.63,54.62 5.74,16.04 14.04,29.6 24.9,40.67 10.51,10.73 23.21,18.93 38.1,24.57 14.88,5.65 31.4,8.47 49.56,8.47 13.28,0 26.52,-1.61 39.76,-4.81 13.22,-3.22 27.92,-8.86 44.07,-16.94 v -39.01 h -2.48 c -13.62,11.39 -27.13,19.7 -40.51,24.9 -13.4,5.2 -27.73,7.8 -43.01,7.8 -12.5,0 -23.77,-2.02 -33.78,-6.06 -10.02,-4.04 -18.95,-10.32 -26.8,-18.84 -7.64,-8.3 -13.6,-18.79 -17.86,-31.46 -4.25,-12.68 -6.38,-27.31 -6.38,-43.91 0,-17.38 2.34,-32.32 7.05,-44.82 4.71,-12.51 10.76,-22.7 18.18,-30.55 7.74,-8.19 16.79,-14.25 27.14,-18.18 10.34,-3.93 21.28,-5.89 32.78,-5.89 15.83,0 30.67,2.71 44.5,8.13 13.83,5.42 26.78,13.56 38.84,24.41 h 2.33 v -38.52"
         style="fill:#8e1636;fill-opacity:1;fill-rule:nonzero;stroke:none"
         transform="matrix(0.13333333,0,0,-0.13333333,0,272.66667)" />
      <path
         id="path24"
         d="m 2375.63,1162.65 h -31.22 v 258.32 h 31.22 v -258.32"
         style="fill:#8e1636;fill-opacity:1;fill-rule:nonzero;stroke:none"
         transform="matrix(0.13333333,0,0,-0.13333333,0,272.66667)" />
      <path
         id="path25"
         d="m 2468.93,1162.65 h -31.22 v 185.44 h 31.22 z m 1.99,216.49 h -35.2 v 32.37 h 35.2 v -32.37"
         style="fill:#8e1636;fill-opacity:1;fill-rule:nonzero;stroke:none"
         transform="matrix(0.13333333,0,0,-0.13333333,0,272.66667)" />
      <path
         id="path26"
         d="m 2801.29,1162.65 h -31.21 v 105.58 c 0,7.97 -0.37,15.66 -1.09,23.08 -0.72,7.42 -2.23,13.34 -4.56,17.76 -2.55,4.76 -6.21,8.36 -10.95,10.8 -4.77,2.43 -11.62,3.65 -20.59,3.65 -8.75,0 -17.5,-2.19 -26.23,-6.56 -8.75,-4.37 -17.5,-9.94 -26.23,-16.68 0.33,-2.55 0.61,-5.51 0.82,-8.89 0.22,-3.37 0.33,-6.72 0.33,-10.04 v -118.7 h -31.21 v 105.58 c 0,8.2 -0.35,15.97 -1.07,23.33 -0.73,7.36 -2.25,13.25 -4.57,17.68 -2.54,4.76 -6.19,8.33 -10.96,10.71 -4.76,2.38 -11.62,3.57 -20.59,3.57 -8.51,0 -17.07,-2.11 -25.64,-6.31 -8.58,-4.21 -17.13,-9.57 -25.65,-16.1 v -138.46 h -31.21 v 185.44 h 31.21 v -20.59 c 9.73,8.08 19.45,14.39 29.14,18.93 9.67,4.53 20.01,6.8 30.96,6.8 12.62,0 23.32,-2.65 32.12,-7.96 8.8,-5.32 15.36,-12.68 19.68,-22.08 12.62,10.62 24.12,18.28 34.53,22.99 10.39,4.7 21.52,7.05 33.36,7.05 20.37,0 35.39,-6.17 45.08,-18.5 9.69,-12.35 14.53,-29.59 14.53,-51.72 v -120.36"
         style="fill:#8e1636;fill-opacity:1;fill-rule:nonzero;stroke:none"
         transform="matrix(0.13333333,0,0,-0.13333333,0,272.66667)" />
      <path
         id="path27"
         d="m 2974.43,1208.3 v 51.64 c -9.51,-0.56 -20.72,-1.39 -33.61,-2.49 -12.89,-1.11 -23.11,-2.72 -30.62,-4.82 -8.97,-2.55 -16.23,-6.5 -21.76,-11.87 -5.53,-5.37 -8.3,-12.76 -8.3,-22.16 0,-10.63 3.21,-18.62 9.63,-23.99 6.42,-5.37 16.21,-8.05 29.39,-8.05 10.96,0 20.97,2.13 30.04,6.39 9.08,4.26 17.49,9.38 25.23,15.35 z m 31.06,-45.65 h -31.06 v 19.76 c -2.76,-1.89 -6.5,-4.52 -11.2,-7.89 -4.7,-3.38 -9.27,-6.06 -13.7,-8.05 -5.19,-2.55 -11.17,-4.67 -17.93,-6.39 -6.75,-1.72 -14.67,-2.58 -23.73,-2.58 -16.72,0 -30.88,5.54 -42.5,16.61 -11.62,11.06 -17.44,25.17 -17.44,42.33 0,14.05 3.02,25.42 9.05,34.11 6.03,8.69 14.64,15.53 25.81,20.51 11.29,4.98 24.85,8.35 40.69,10.13 15.82,1.76 32.81,3.09 50.95,3.98 v 4.81 c 0,7.08 -1.24,12.95 -3.73,17.6 -2.49,4.65 -6.05,8.3 -10.7,10.96 -4.43,2.54 -9.75,4.26 -15.94,5.15 -6.21,0.88 -12.67,1.33 -19.43,1.33 -8.18,0 -17.33,-1.09 -27.38,-3.24 -10.08,-2.16 -20.49,-5.29 -31.21,-9.38 h -1.66 v 31.71 c 6.07,1.66 14.88,3.48 26.38,5.48 11.52,1.98 22.85,2.98 34.04,2.98 13.05,0 24.43,-1.08 34.12,-3.23 9.67,-2.16 18.06,-5.84 25.14,-11.04 6.98,-5.1 12.29,-11.69 15.94,-19.76 3.65,-8.08 5.49,-18.1 5.49,-30.05 v -125.84"
         style="fill:#8e1636;fill-opacity:1;fill-rule:nonzero;stroke:none"
         transform="matrix(0.13333333,0,0,-0.13333333,0,272.66667)" />
      <path
         id="path28"
         d="m 3161.88,1164.31 c -5.88,-1.55 -12.27,-2.82 -19.18,-3.82 -6.92,-0.99 -13.09,-1.49 -18.52,-1.49 -18.93,0 -33.31,5.09 -43.16,15.27 -9.85,10.18 -14.77,26.5 -14.77,48.98 v 98.61 h -21.09 v 26.23 h 21.09 v 53.29 h 31.21 v -53.29 h 64.42 v -26.23 h -64.42 v -84.5 c 0,-9.74 0.22,-17.35 0.67,-22.83 0.42,-5.48 1.99,-10.6 4.64,-15.35 2.43,-4.43 5.78,-7.67 10.04,-9.72 4.26,-2.05 10.76,-3.07 19.51,-3.07 5.08,0 10.39,0.75 15.94,2.24 5.53,1.5 9.51,2.74 11.95,3.74 h 1.67 v -28.06"
         style="fill:#8e1636;fill-opacity:1;fill-rule:nonzero;stroke:none"
         transform="matrix(0.13333333,0,0,-0.13333333,0,272.66667)" />
      <path
         id="path29"
         d="m 3324.39,1276.04 c -0.1,16.38 -4.22,29.05 -12.36,38.02 -8.13,8.96 -20.51,13.44 -37.11,13.44 -16.71,0 -30.02,-4.92 -39.92,-14.77 -9.9,-9.85 -15.53,-22.08 -16.86,-36.69 z m 30.4,-23.91 h -136.65 c 0,-11.4 1.72,-21.33 5.16,-29.8 3.42,-8.46 8.13,-15.41 14.1,-20.83 5.76,-5.31 12.6,-9.3 20.51,-11.95 7.91,-2.66 16.62,-3.99 26.15,-3.99 12.62,0 25.32,2.51 38.1,7.55 12.78,5.04 21.88,9.99 27.31,14.86 h 1.66 v -34.03 c -10.52,-4.43 -21.25,-8.14 -32.2,-11.12 -10.96,-2.99 -22.48,-4.48 -34.54,-4.48 -30.78,0 -54.78,8.32 -72.05,24.98 -17.26,16.66 -25.89,40.31 -25.89,70.97 0,30.32 8.26,54.4 24.81,72.22 16.54,17.81 38.32,26.72 65.32,26.72 25.02,0 44.3,-7.3 57.86,-21.91 13.56,-14.61 20.35,-35.36 20.35,-62.25 v -16.94"
         style="fill:#8e1636;fill-opacity:1;fill-rule:nonzero;stroke:none"
         transform="matrix(0.13333333,0,0,-0.13333333,0,272.66667)" />
      <path
         id="path30"
         d="m 2300.08,772.578 c -6.09,-2.648 -11.59,-5.137 -16.52,-7.469 -4.93,-2.32 -11.37,-4.75 -19.34,-7.3 -6.75,-2.098 -14.08,-3.899 -21.99,-5.399 -7.91,-1.488 -16.63,-2.238 -26.16,-2.238 -17.93,0 -34.21,2.519 -48.88,7.547 -14.67,5.043 -27.42,12.929 -38.26,23.66 -10.63,10.519 -18.93,23.883 -24.91,40.09 -5.97,16.211 -8.96,35.062 -8.96,56.531 0,20.359 2.87,38.57 8.63,54.621 5.74,16.051 14.04,29.609 24.9,40.668 10.51,10.742 23.21,18.93 38.1,24.582 14.88,5.639 31.4,8.459 49.56,8.459 13.28,0 26.52,-1.6 39.76,-4.81 13.22,-3.219 27.92,-8.86 44.07,-16.942 V 945.57 h -2.48 c -13.62,11.399 -27.13,19.7 -40.51,24.899 -13.4,5.203 -27.73,7.812 -43.01,7.812 -12.5,0 -23.77,-2.031 -33.78,-6.062 -10.02,-4.047 -18.95,-10.321 -26.8,-18.848 -7.64,-8.301 -13.6,-18.793 -17.86,-31.449 -4.25,-12.684 -6.38,-27.32 -6.38,-43.922 0,-17.371 2.34,-32.309 7.05,-44.82 4.71,-12.508 10.76,-22.692 18.18,-30.551 7.74,-8.188 16.79,-14.25 27.14,-18.168 10.34,-3.941 21.28,-5.902 32.78,-5.902 15.83,0 30.67,2.711 44.5,8.132 13.83,5.418 26.78,13.559 38.84,24.411 h 2.33 v -38.524"
         style="fill:#8e1636;fill-opacity:1;fill-rule:nonzero;stroke:none"
         transform="matrix(0.13333333,0,0,-0.13333333,0,272.66667)" />
      <path
         id="path31"
         d="m 2499.14,754.648 h -31.21 v 105.59 c 0,8.512 -0.51,16.524 -1.5,23.981 -1,7.48 -2.82,13.312 -5.47,17.519 -2.78,4.653 -6.76,8.114 -11.96,10.371 -5.21,2.27 -11.95,3.411 -20.25,3.411 -8.54,0 -17.44,-2.098 -26.74,-6.309 -9.3,-4.211 -18.2,-9.582 -26.72,-16.102 V 754.648 h -31.21 v 258.322 h 31.21 v -93.458 c 9.73,8.066 19.81,14.379 30.22,18.918 10.39,4.539 21.07,6.808 32.03,6.808 20.04,0 35.31,-6.039 45.82,-18.097 10.52,-12.063 15.78,-29.442 15.78,-52.129 V 754.648"
         style="fill:#8e1636;fill-opacity:1;fill-rule:nonzero;stroke:none"
         transform="matrix(0.13333333,0,0,-0.13333333,0,272.66667)" />
      <path
         id="path32"
         d="m 2672.29,800.309 v 51.632 c -9.52,-0.562 -20.73,-1.39 -33.62,-2.492 -12.89,-1.109 -23.1,-2.719 -30.62,-4.82 -8.97,-2.551 -16.22,-6.5 -21.76,-11.867 -5.53,-5.371 -8.3,-12.762 -8.3,-22.16 0,-10.633 3.21,-18.622 9.63,-23.993 6.42,-5.379 16.21,-8.05 29.39,-8.05 10.96,0 20.97,2.132 30.04,6.39 9.08,4.25 17.49,9.379 25.24,15.36 z m 31.05,-45.661 h -31.05 v 19.762 c -2.77,-1.89 -6.51,-4.512 -11.21,-7.879 -4.7,-3.383 -9.26,-6.07 -13.7,-8.062 -5.19,-2.547 -11.17,-4.68 -17.93,-6.399 -6.74,-1.699 -14.66,-2.558 -23.73,-2.558 -16.72,0 -30.88,5.527 -42.5,16.597 -11.62,11.063 -17.44,25.172 -17.44,42.332 0,14.047 3.02,25.43 9.05,34.118 6.03,8.679 14.64,15.519 25.81,20.5 11.29,4.98 24.85,8.351 40.69,10.132 15.82,1.77 32.81,3.09 50.96,3.981 v 4.816 c 0,7.082 -1.25,12.953 -3.74,17.59 -2.49,4.652 -6.05,8.301 -10.7,10.961 -4.43,2.551 -9.74,4.262 -15.94,5.152 -6.21,0.879 -12.67,1.329 -19.43,1.329 -8.18,0 -17.32,-1.079 -27.38,-3.25 -10.08,-2.141 -20.49,-5.282 -31.21,-9.372 h -1.66 v 31.711 c 6.07,1.661 14.88,3.481 26.38,5.481 11.52,1.988 22.85,2.98 34.05,2.98 13.04,0 24.42,-1.07 34.11,-3.242 9.68,-2.148 18.06,-5.84 25.14,-11.027 6.98,-5.102 12.29,-11.68 15.94,-19.762 3.65,-8.078 5.49,-18.09 5.49,-30.051 v -125.84"
         style="fill:#8e1636;fill-opacity:1;fill-rule:nonzero;stroke:none"
         transform="matrix(0.13333333,0,0,-0.13333333,0,272.66667)" />
      <path
         id="path33"
         d="m 2918.5,754.648 h -31.21 v 105.59 c 0,8.512 -0.51,16.524 -1.51,23.981 -0.99,7.48 -2.81,13.312 -5.47,17.519 -2.77,4.653 -6.76,8.114 -11.95,10.371 -5.22,2.27 -11.95,3.411 -20.25,3.411 -8.54,0 -17.45,-2.098 -26.74,-6.309 -9.3,-4.211 -18.21,-9.582 -26.72,-16.102 V 754.648 h -31.21 V 940.09 h 31.21 v -20.578 c 9.73,8.066 19.8,14.379 30.21,18.918 10.39,4.539 21.08,6.808 32.03,6.808 20.04,0 35.32,-6.039 45.82,-18.097 10.52,-12.063 15.79,-29.442 15.79,-52.129 V 754.648"
         style="fill:#8e1636;fill-opacity:1;fill-rule:nonzero;stroke:none"
         transform="matrix(0.13333333,0,0,-0.13333333,0,272.66667)" />
      <path
         id="path34"
         d="m 3097.79,805.621 v 101.098 c -8.3,3.761 -16.02,6.453 -23.16,8.051 -7.14,1.601 -14.26,2.41 -21.33,2.41 -17.17,0 -30.66,-5.75 -40.51,-17.258 -9.86,-11.524 -14.78,-28.231 -14.78,-50.141 0,-20.812 3.65,-36.582 10.95,-47.32 7.31,-10.742 19.44,-16.102 36.37,-16.102 9.06,0 18.18,1.75 27.31,5.231 9.13,3.488 17.52,8.16 25.15,14.031 z M 3129,775.738 c 0,-31.437 -7.14,-54.508 -21.42,-69.226 -14.28,-14.723 -36.25,-22.082 -65.9,-22.082 -9.86,0 -19.45,0.691 -28.81,2.082 -9.35,1.379 -18.57,3.34 -27.64,5.886 v 31.872 h 1.66 c 5.08,-1.989 13.17,-4.45 24.24,-7.391 11.06,-2.93 22.13,-4.399 33.21,-4.399 10.62,0 19.41,1.27 26.38,3.821 6.98,2.551 12.41,6.09 16.27,10.629 3.88,4.308 6.64,9.519 8.3,15.601 1.66,6.09 2.5,12.891 2.5,20.418 v 16.942 c -9.41,-7.532 -18.41,-13.153 -26.98,-16.86 -8.58,-3.711 -19.5,-5.562 -32.78,-5.562 -22.15,0 -39.71,8 -52.72,24 -13.01,15.992 -19.51,38.531 -19.51,67.652 0,15.93 2.25,29.68 6.73,41.258 4.48,11.562 10.6,21.543 18.35,29.961 7.19,7.851 15.94,13.961 26.23,18.34 10.29,4.371 20.53,6.558 30.7,6.558 10.74,0 19.73,-1.078 26.98,-3.238 7.25,-2.148 14.92,-5.449 23,-9.879 l 2,7.969 H 3129 V 775.738"
         style="fill:#8e1636;fill-opacity:1;fill-rule:nonzero;stroke:none"
         transform="matrix(0.13333333,0,0,-0.13333333,0,272.66667)" />
      <path
         id="path35"
         d="m 3315.27,868.039 c -0.11,16.383 -4.23,29.051 -12.37,38.02 -8.13,8.961 -20.5,13.453 -37.1,13.453 -16.72,0 -30.03,-4.942 -39.93,-14.782 -9.91,-9.851 -15.52,-22.082 -16.85,-36.691 z m 30.37,-23.91 h -136.62 c 0,-11.391 1.71,-21.328 5.14,-29.789 3.44,-8.481 8.14,-15.418 14.12,-20.84 5.74,-5.309 12.58,-9.301 20.5,-11.949 7.91,-2.66 16.63,-3.992 26.14,-3.992 12.62,0 25.32,2.519 38.11,7.562 12.78,5.027 21.88,9.981 27.3,14.848 h 1.66 v -34.028 c -10.51,-4.429 -21.25,-8.132 -32.2,-11.121 -10.96,-2.992 -22.47,-4.48 -34.54,-4.48 -30.76,0 -54.78,8.32 -72.05,24.98 -17.26,16.66 -25.9,40.309 -25.9,70.969 0,30.332 8.29,54.402 24.83,72.223 16.54,17.816 38.32,26.726 65.33,26.726 25,0 44.3,-7.308 57.85,-21.918 13.56,-14.609 20.33,-35.359 20.33,-62.25 v -16.941"
         style="fill:#8e1636;fill-opacity:1;fill-rule:nonzero;stroke:none"
         transform="matrix(0.13333333,0,0,-0.13333333,0,272.66667)" />
      <path
         id="path36"
         d="m 3694.61,825.211 c 0,-9.633 -2.24,-19.152 -6.72,-28.563 -4.48,-9.398 -10.76,-17.367 -18.85,-23.898 -8.84,-7.078 -19.17,-12.621 -30.95,-16.602 -11.79,-3.988 -25.98,-5.976 -42.58,-5.976 -17.83,0 -33.85,1.656 -48.07,4.976 -14.22,3.321 -28.69,8.243 -43.42,14.782 v 41.172 h 2.33 c 12.51,-10.411 26.95,-18.43 43.34,-24.071 16.36,-5.652 31.76,-8.472 46.15,-8.472 20.35,0 36.21,3.82 47.56,11.453 11.35,7.636 17.01,17.828 17.01,30.547 0,10.961 -2.68,19.031 -8.05,24.242 -5.37,5.199 -13.53,9.238 -24.49,12.121 -8.3,2.207 -17.28,4.039 -26.97,5.476 -9.69,1.43 -19.95,3.262 -30.8,5.481 -21.92,4.641 -38.16,12.582 -48.72,23.82 -10.58,11.231 -15.85,25.86 -15.85,43.91 0,20.692 8.73,37.661 26.23,50.879 17.48,13.231 39.67,19.842 66.56,19.842 17.38,0 33.32,-1.66 47.81,-4.98 14.5,-3.319 27.35,-7.42 38.52,-12.28 v -38.851 h -2.33 c -9.4,7.972 -21.77,14.582 -37.1,19.84 -15.33,5.25 -31.02,7.882 -47.06,7.882 -17.59,0 -31.73,-3.652 -42.42,-10.953 -10.68,-7.308 -16.01,-16.707 -16.01,-28.226 0,-10.293 2.65,-18.371 7.97,-24.231 5.31,-5.871 14.65,-10.359 28.04,-13.453 7.09,-1.547 17.16,-3.437 30.22,-5.648 13.06,-2.211 24.13,-4.481 33.2,-6.801 18.38,-4.879 32.21,-12.238 41.5,-22.078 9.3,-9.86 13.95,-23.641 13.95,-41.34"
         style="fill:#8e1636;fill-opacity:1;fill-rule:nonzero;stroke:none"
         transform="matrix(0.13333333,0,0,-0.13333333,0,272.66667)" />
      <path
         id="path37"
         d="m 3869.77,868.039 c -0.12,16.383 -4.24,29.051 -12.38,38.02 -8.13,8.961 -20.5,13.453 -37.1,13.453 -16.72,0 -30.03,-4.942 -39.93,-14.782 -9.91,-9.851 -15.52,-22.082 -16.84,-36.691 z m 30.37,-23.91 h -136.62 c 0,-11.391 1.7,-21.328 5.13,-29.789 3.44,-8.481 8.15,-15.418 14.12,-20.84 5.75,-5.309 12.58,-9.301 20.5,-11.949 7.91,-2.66 16.63,-3.992 26.14,-3.992 12.62,0 25.33,2.519 38.11,7.562 12.78,5.027 21.88,9.981 27.3,14.848 h 1.66 v -34.028 c -10.5,-4.429 -21.25,-8.132 -32.2,-11.121 -10.96,-2.992 -22.46,-4.48 -34.53,-4.48 -30.77,0 -54.79,8.32 -72.05,24.98 -17.27,16.66 -25.9,40.309 -25.9,70.969 0,30.332 8.28,54.402 24.82,72.223 16.54,17.816 38.32,26.726 65.33,26.726 25,0 44.3,-7.308 57.85,-21.918 13.56,-14.609 20.34,-35.359 20.34,-62.25 v -16.941"
         style="fill:#8e1636;fill-opacity:1;fill-rule:nonzero;stroke:none"
         transform="matrix(0.13333333,0,0,-0.13333333,0,272.66667)" />
      <path
         id="path38"
         d="m 4063.16,906.059 h -1.66 c -4.64,1.101 -9.16,1.91 -13.52,2.402 -4.38,0.508 -9.54,0.75 -15.52,0.75 -9.63,0 -18.92,-2.141 -27.89,-6.391 -8.96,-4.261 -17.6,-9.769 -25.9,-16.519 V 754.648 h -31.21 V 940.09 h 31.21 v -27.391 c 12.38,9.961 23.32,17.012 32.79,21.172 9.46,4.141 19.11,6.219 28.97,6.219 5.41,0 9.35,-0.141 11.78,-0.418 2.44,-0.274 6.09,-0.801 10.95,-1.57 v -32.043"
         style="fill:#8e1636;fill-opacity:1;fill-rule:nonzero;stroke:none"
         transform="matrix(0.13333333,0,0,-0.13333333,0,272.66667)" />
      <path
         id="path39"
         d="m 4252.93,940.09 -75.04,-185.442 h -31.39 l -74.53,185.442 h 33.87 l 57.44,-147.59 56.93,147.59 h 32.72"
         style="fill:#8e1636;fill-opacity:1;fill-rule:nonzero;stroke:none"
         transform="matrix(0.13333333,0,0,-0.13333333,0,272.66667)" />
      <path
         id="path40"
         d="M 4325.31,754.648 H 4294.1 V 940.09 h 31.21 z m 1.99,216.493 h -35.19 v 32.369 h 35.19 v -32.369"
         style="fill:#8e1636;fill-opacity:1;fill-rule:nonzero;stroke:none"
         transform="matrix(0.13333333,0,0,-0.13333333,0,272.66667)" />
      <path
         id="path41"
         d="m 4524.2,766.27 c -10.41,-4.981 -20.29,-8.848 -29.64,-11.622 -9.35,-2.757 -19.29,-4.148 -29.79,-4.148 -13.4,0 -25.69,1.961 -36.86,5.891 -11.19,3.929 -20.76,9.879 -28.73,17.847 -8.08,7.973 -14.34,18.043 -18.75,30.223 -4.43,12.168 -6.64,26.391 -6.64,42.66 0,30.328 8.32,54.117 24.98,71.391 16.66,17.269 38.65,25.898 66,25.898 10.62,0 21.05,-1.5 31.28,-4.48 10.24,-2.989 19.61,-6.641 28.15,-10.961 V 894.27 h -1.66 c -9.53,7.41 -19.35,13.121 -29.47,17.101 -10.13,3.988 -20,5.981 -29.63,5.981 -17.72,0 -31.69,-5.961 -41.93,-17.852 -10.24,-11.898 -15.36,-29.359 -15.36,-52.379 0,-22.351 5.01,-39.543 15.03,-51.551 10.01,-12.011 24.09,-18.011 42.26,-18.011 6.31,0 12.71,0.832 19.26,2.492 6.52,1.66 12.38,3.82 17.59,6.48 4.53,2.321 8.79,4.778 12.78,7.379 3.98,2.602 7.14,4.84 9.47,6.731 h 1.66 V 766.27"
         style="fill:#8e1636;fill-opacity:1;fill-rule:nonzero;stroke:none"
         transform="matrix(0.13333333,0,0,-0.13333333,0,272.66667)" />
      <path
         id="path42"
         d="m 4689.04,868.039 c -0.1,16.383 -4.23,29.051 -12.36,38.02 -8.14,8.961 -20.51,13.453 -37.11,13.453 -16.71,0 -30.02,-4.942 -39.92,-14.782 -9.9,-9.851 -15.53,-22.082 -16.86,-36.691 z m 30.39,-23.91 h -136.64 c 0,-11.391 1.72,-21.328 5.16,-29.789 3.42,-8.481 8.12,-15.418 14.1,-20.84 5.76,-5.309 12.6,-9.301 20.51,-11.949 7.91,-2.66 16.62,-3.992 26.15,-3.992 12.62,0 25.31,2.519 38.1,7.562 12.78,5.027 21.88,9.981 27.31,14.848 h 1.66 v -34.028 c -10.53,-4.429 -21.25,-8.132 -32.21,-11.121 -10.95,-2.992 -22.48,-4.48 -34.53,-4.48 -30.78,0 -54.78,8.32 -72.05,24.98 -17.26,16.66 -25.9,40.309 -25.9,70.969 0,30.332 8.27,54.402 24.82,72.223 16.54,17.816 38.32,26.726 65.32,26.726 25.02,0 44.3,-7.308 57.86,-21.918 13.56,-14.609 20.34,-35.359 20.34,-62.25 v -16.941"
         style="fill:#8e1636;fill-opacity:1;fill-rule:nonzero;stroke:none"
         transform="matrix(0.13333333,0,0,-0.13333333,0,272.66667)" />
      <path
         id="path43"
         d="M 0,1065.75 C 0,524.93 434.172,86.4688 969.648,86.4688 c 154.902,0 299.182,35.8402 429.102,101.1332 0,0 2.46,1.269 1.13,3.707 -1.13,2.332 -3.51,1.062 -3.51,1.062 -99.73,-39.59 -206.25,-60.473 -319.92,-60.473 -487.544,0 -882.72,400.372 -882.72,894.342 0,493.99 395.176,894.43 882.72,894.43 346.01,0 645.29,-199.95 790.03,-493.65 0,0 1.27,-2.68 3.38,-1.86 2.41,0.89 1.16,3.47 1.16,3.47 -142.33,362.1 -492.13,616.33 -901.372,616.33 C 434.172,2044.96 0,1606.57 0,1065.75"
         style="fill:#8e1636;fill-opacity:1;fill-rule:nonzero;stroke:none"
         transform="matrix(0.13333333,0,0,-0.13333333,0,272.66667)" />
      <path
         id="path44"
         d="m 1244.61,828.891 v 402.899 h 65.68 V 828.891 c 33.66,-13.141 57.5,-45.801 57.5,-84.102 0,-49.84 -40.45,-90.309 -90.33,-90.309 -49.86,0 -90.29,40.469 -90.29,90.309 0,38.301 23.83,70.961 57.44,84.102"
         style="fill:#8e1636;fill-opacity:1;fill-rule:nonzero;stroke:none"
         transform="matrix(0.13333333,0,0,-0.13333333,0,272.66667)" />
      <path
         id="path45"
         d="m 1397.91,1224.09 c 0,7.11 -0.61,16.25 -2.19,24.04 -3.06,16.25 -9.55,31.56 -18.57,44.78 -17.97,26.62 -46.27,44.39 -75.92,49.94 -29.59,5.63 -59.98,-0.53 -83.73,-15.37 -23.87,-14.67 -40.96,-37.25 -49.16,-61.52 -4.06,-12.2 -6.15,-24.72 -6.02,-36.91 l 0.77,-30.41 c 4.55,-156.35 10.82,-253.089 17.77,-253.089 6.95,0 14.34,124.519 18.89,280.859 0,41.4 33.55,75.02 74.96,75.02 41.42,0 75,-33.62 75,-75.02 V 863.93 c 5.45,-4.321 10.35,-8.551 15.68,-13.032 3.03,-2.609 4.59,-4.097 6.82,-6.289 4.16,-4.097 8.04,-8.429 11.6,-13 7.09,-9.109 13.05,-19.007 17.52,-29.461 9.1,-20.859 12.6,-43.609 10.66,-65.679 -3.55,-44.239 -29.9,-83.418 -64.8,-104.61 -34.85,-21.718 -77.25,-25.41 -112.37,-14.82 -35.48,10.371 -63.65,34.211 -80.43,61.191 -17.12,27.071 -23.12,56.891 -22.38,82.731 0.7,26 8.01,47.969 16.29,64.668 8.32,16.801 17.44,28.633 23.75,36.66 6.31,8.051 9.86,12.422 8.81,13.813 -0.94,1.226 -6.48,-0.571 -15.39,-6.762 -8.85,-6.168 -21.21,-16.86 -33.22,-34.16 -11.94,-17.231 -23.38,-41.578 -27.04,-72.149 -3.73,-30.23 0.61,-67.07 19.65,-101.972 18.62,-34.668 52.43,-66.95 97.64,-82.36 44.69,-15.668 100.31,-13.129 147.7,14.391 47.12,26.68 84.12,78.59 89.96,138.75 3.14,29.73 -1.12,61.039 -13.32,89.789 -6.04,14.371 -14.03,28 -23.7,40.543 -4.8,6.226 -10.03,12.226 -15.66,17.848 -2.66,2.679 -6.15,5.902 -8.36,7.839 0.04,-0.039 0,0.032 0,0.032 l -1.21,336.199"
         style="fill:#8e1636;fill-opacity:1;fill-rule:nonzero;stroke:none"
         transform="matrix(0.13333333,0,0,-0.13333333,0,272.66667)" />
      <path
         id="path46"
         d="m 378.895,1076.3 c 0,0 32.035,107.65 156.085,134 6.739,148 132.989,266.94 287.93,266.94 57.227,0 110.598,-16.13 155.481,-43.88 58.649,102 171.899,170.46 302.549,170.46 190.64,0 345.25,-147.39 345.25,-329.13 0,-20.4 -1.95,-40.4 -5.68,-59.76 70.02,-4.32 116.17,-40.2 116.17,-40.2 36.5,-26.07 58.16,-59.12 69.9,-87.26 11.82,-28.46 13.99,-52.46 13.79,-68.16 -0.37,-15.86 -2.99,-23.888 -5.06,-23.888 -2.42,0 -4.18,8.008 -7.91,22.358 -3.88,14.26 -9.74,35.2 -23.42,58.6 -13.57,23.2 -35.05,49.17 -67.12,68.24 h -0.38 c -26.25,16.58 -69.33,27.4 -118.1,27.4 -10.27,0 -20.31,-0.51 -30.02,-1.43 4.69,21.41 7.99,44.87 7.99,67.7 0,167.48 -133.11,303.31 -297.33,303.31 -129.31,0 -240.57,-83.02 -281.508,-200.6 -52.434,60.98 -141.117,91.74 -231.223,71.98 -119.512,-26.26 -199.277,-132.04 -186.055,-241.04 -126.671,5.22 -179.582,-104.82 -179.582,-104.82 -10.867,-21.21 -15.828,-39.59 -19.148,-52.13 -3.176,-12.6 -4.895,-19.568 -7.149,-19.568 -1.953,0 -4.328,6.968 -5.019,20.818 -0.457,13.75 0.859,34.59 9.559,60.06"
         style="fill:#8e1636;fill-opacity:1;fill-rule:nonzero;stroke:none"
         transform="matrix(0.13333333,0,0,-0.13333333,0,272.66667)" />
    </g>
  </g>
</svg>
